#!OML:ASF X:\für Bonn\!DataBase\2005_08_12_Daniel\c3d\Daniel.ASF
:FULLY-SPECIFIED
:DEGREES
2727
root 2.98382 18.0125 -16.496 -715.39 24.3206 -354.117
lowerback 9.3732 -4.4827 1.88298
upperback -0.0753315 -5.81804 -1.09228
thorax -5.62597 -2.9311 -1.36197
lowerneck -8.60324 -3.24715 -9.8921
upperneck 3.89468 -3.72377 8.05754
head 2.89304 -1.70646 3.86147
rclavicle -5.61567e-015 6.75868e-015
rhumerus -81.3184 15.8456 -97.9996
rradius 74.4161
rwrist -1.39359
rhand -27.4713 35.5729
rfingers 7.12502
rthumb -0.875303 5.59499
lclavicle -5.61567e-015 6.75868e-015
lhumerus -53.242 -9.05006 85.1688
lradius 123.1
lwrist 10.0648
lhand -10.9892 -19.2594
lfingers 7.12502
lthumb 15.0309 10.175
rfemur -27.7553 -1.22984 31.8795
rtibia 34.1779
rfoot 0.705135 0.910107
rtoes -6.16417
lfemur 10.8655 1.49893 -16.6998
ltibia 42.376
lfoot 2.5485 -2.07442
ltoes -17.4397
2728
root 3.13024 18.0129 -16.1939 -715.224 23.7278 -353.714
lowerback 9.1397 -4.46584 1.62662
upperback -0.22212 -5.8314 -1.12848
thorax -5.62754 -2.9334 -1.26785
lowerneck -8.60705 -3.14613 -9.79155
upperneck 4.05418 -3.58951 7.80483
head 2.92223 -1.64848 3.77442
rclavicle 4.53229e-014 -2.22639e-014
rhumerus -81.8165 15.5622 -97.7747
rradius 74.223
rwrist -1.64143
rhand -27.0443 35.938
rfingers 7.12502
rthumb -0.462919 5.95879
lclavicle 4.53229e-014 -2.22639e-014
lhumerus -53.7001 -9.86341 85.3783
lradius 123.398
lwrist 9.65422
lhand -10.8591 -18.8803
lfingers 7.12502
lthumb 15.1562 10.5447
rfemur -26.999 -0.525416 31.6361
rtibia 31.1528
rfoot -0.164571 -1.15183
rtoes -7.90113
lfemur 11.0468 2.10553 -16.7685
ltibia 43.9351
lfoot 2.33237 -1.64832
ltoes -16.5756
2729
root 3.27578 17.9992 -15.8908 -715.125 23.1271 -353.249
lowerback 8.96584 -4.43288 1.27862
upperback -0.312145 -5.83112 -1.17915
thorax -5.59445 -2.92558 -1.13831
lowerneck -8.606 -3.05736 -9.66612
upperneck 4.13259 -3.46836 7.50961
head 2.92676 -1.598 3.66961
rclavicle -3.35946e-014 7.95139e-016
rhumerus -82.1835 15.1514 -97.433
rradius 73.9735
rwrist -2.00805
rhand -26.7765 36.4712
rfingers 7.12502
rthumb -0.204258 6.49153
lclavicle -3.35946e-014 7.95139e-016
lhumerus -54.1554 -10.451 85.7281
lradius 123.697
lwrist 9.32304
lhand -10.3953 -18.4266
lfingers 7.12502
lthumb 15.603 10.9641
rfemur -26.2458 0.131936 31.3366
rtibia 28.5231
rfoot -1.18992 -3.30302
rtoes -9.8303
lfemur 11.1437 2.72343 -16.8607
ltibia 45.7429
lfoot 1.97869 -1.29256
ltoes -16.1718
2730
root 3.42028 17.9688 -15.5891 -715.126 22.541 -352.755
lowerback 8.88552 -4.39935 0.875063
upperback -0.346514 -5.83349 -1.23632
thorax -5.55064 -2.91673 -0.97977
lowerneck -8.60372 -2.96642 -9.4981
upperneck 4.15788 -3.3473 7.21771
head 2.9151 -1.54648 3.55907
rclavicle 3.57812e-014 1.39149e-014
rhumerus -82.3113 14.6286 -96.9596
rradius 73.6711
rwrist -2.35105
rhand -26.6472 36.9554
rfingers 7.12502
rthumb -0.0793407 6.97565
lclavicle 3.57812e-014 1.39149e-014
lhumerus -54.6323 -10.9026 86.1535
lradius 123.972
lwrist 9.10773
lhand -9.6992 -17.8758
lfingers 7.12502
lthumb 16.2733 11.4613
rfemur -25.5284 0.624313 31.0549
rtibia 26.3628
rfoot -1.9562 -5.24448
rtoes -11.5362
lfemur 11.168 3.3527 -16.9561
ltibia 47.7623
lfoot 1.5958 -1.05806
ltoes -16.466
2731
root 3.56398 17.9244 -15.2886 -715.176 21.9739 -352.265
lowerback 8.83311 -4.35048 0.461718
upperback -0.345007 -5.81464 -1.28771
thorax -5.48277 -2.89686 -0.812346
lowerneck -8.62742 -2.89202 -9.3683
upperneck 4.16027 -3.2424 6.94837
head 2.90375 -1.50214 3.46063
rclavicle -7.99114e-014 -3.18055e-015
rhumerus -82.0872 14.0002 -96.3883
rradius 73.2248
rwrist -2.73894
rhand -26.6628 37.3581
rfingers 7.12502
rthumb -0.0944078 7.37833
lclavicle -7.99114e-014 -3.18055e-015
lhumerus -55.137 -11.3315 86.6658
lradius 124.164
lwrist 8.9616
lhand -8.84139 -17.302
lfingers 7.12502
lthumb 17.0991 11.9655
rfemur -24.9282 0.79457 30.8811
rtibia 24.7365
rfoot -2.34809 -7.24318
rtoes -14.0179
lfemur 11.1367 3.98394 -16.9917
ltibia 49.9338
lfoot 1.29095 -1.01306
ltoes -15.9509
2732
root 3.70615 17.8676 -14.9899 -715.305 21.4365 -351.781
lowerback 8.83235 -4.31534 0.00409053
upperback -0.279078 -5.81515 -1.31039
thorax -5.36954 -2.88492 -0.587157
lowerneck -8.65903 -2.81355 -9.20707
upperneck 4.06257 -3.12803 6.62291
head 2.86181 -1.45386 3.34048
rclavicle 5.84427e-014 -1.19271e-014
rhumerus -81.5701 13.3703 -95.7201
rradius 72.7316
rwrist -3.10922
rhand -26.8254 37.6459
rfingers 7.12502
rthumb -0.251486 7.6663
lclavicle 5.84427e-014 -1.19271e-014
lhumerus -55.5943 -11.6383 87.2446
lradius 124.221
lwrist 8.88052
lhand -7.91703 -16.6748
lfingers 7.12502
lthumb 17.9887 12.5133
rfemur -24.4526 0.669463 30.8182
rtibia 23.7043
rfoot -2.47115 -8.73807
rtoes -14.3643
lfemur 11.1062 4.56266 -16.984
ltibia 52.2014
lfoot 1.16884 -1.28661
ltoes -15.3743
2733
root 3.84659 17.8017 -14.6906 -715.495 20.9024 -351.343
lowerback 8.84829 -4.26698 -0.419044
upperback -0.178268 -5.7934 -1.33366
thorax -5.2326 -2.86367 -0.384921
lowerneck -8.7133 -2.74906 -9.02109
upperneck 3.96398 -3.03475 6.31078
head 2.82534 -1.41469 3.21918
rclavicle 4.82053e-015 7.95139e-016
rhumerus -80.9112 12.6591 -95.029
rradius 72.247
rwrist -3.43587
rhand -27.1209 37.7515
rfingers 7.12502
rthumb -0.536848 7.77242
lclavicle 4.82053e-015 7.95139e-016
lhumerus -56.1345 -11.9214 87.8117
lradius 124.188
lwrist 8.85572
lhand -6.97303 -16.0969
lfingers 7.12502
lthumb 18.8968 13.0052
rfemur -24.16 0.448595 30.835
rtibia 23.3071
rfoot -2.45664 -9.8651
rtoes -13.095
lfemur 11.0413 5.07826 -16.8837
ltibia 54.5519
lfoot 1.28585 -1.82446
ltoes -14.7045
2734
root 3.98542 17.7276 -14.3928 -715.769 20.379 -350.945
lowerback 8.9196 -4.21625 -0.823008
upperback -0.0291779 -5.76451 -1.33662
thorax -5.07641 -2.83991 -0.171062
lowerneck -8.75096 -2.68646 -8.87406
upperneck 3.7846 -2.94012 6.01136
head 2.76303 -1.37453 3.1086
rclavicle -1.5704e-014 2.38542e-014
rhumerus -80.195 11.8773 -94.2984
rradius 71.8721
rwrist -3.72451
rhand -27.5219 37.6798
rfingers 7.12502
rthumb -0.924113 7.70209
lclavicle -1.5704e-014 2.38542e-014
lhumerus -56.758 -12.1494 88.3826
lradius 124.067
lwrist 8.86739
lhand -6.18206 -15.596
lfingers 7.12502
lthumb 19.6573 13.4301
rfemur -23.8777 0.0765652 30.9251
rtibia 23.4463
rfoot -2.30145 -10.5463
rtoes -10.3695
lfemur 10.9524 5.46132 -16.7328
ltibia 57.0034
lfoot 1.4703 -2.42198
ltoes -13.1024
2735
root 4.12202 17.6426 -14.0964 -716.087 19.8805 -350.621
lowerback 9.00004 -4.16854 -1.17472
upperback 0.14404 -5.73234 -1.3133
thorax -4.90305 -2.81668 0.0403315
lowerneck -8.78936 -2.6322 -8.74736
upperneck 3.35811 -2.83809 5.46573
head 2.92661 -1.3529 3.25954
rclavicle 7.15625e-015 -1.51076e-014
rhumerus -79.4649 11.064 -93.5685
rradius 71.5757
rwrist -4.05141
rhand -27.859 37.4949
rfingers 7.12502
rthumb -1.24978 7.51886
lclavicle 7.15625e-015 -1.51076e-014
lhumerus -57.4337 -12.2817 88.951
lradius 123.812
lwrist 8.76444
lhand -5.52584 -15.223
lfingers 7.12502
lthumb 20.2881 13.7374
rfemur -23.5622 -0.415104 31.1332
rtibia 24.005
rfoot -2.17901 -10.7507
rtoes -6.73
lfemur 10.7618 5.92887 -16.2757
ltibia 59.6252
lfoot 1.66593 -3.2974
ltoes -11.8404
2736
root 4.25455 17.5548 -13.7983 -716.457 19.4035 -350.396
lowerback 9.09853 -4.12306 -1.45328
upperback 0.341155 -5.6936 -1.25548
thorax -4.71898 -2.79265 0.246535
lowerneck -8.88358 -2.5768 -8.57864
upperneck 3.18161 -2.75383 5.17225
head 2.86403 -1.31483 3.1268
rclavicle -7.45443e-015 1.03368e-014
rhumerus -78.7026 10.3085 -92.9088
rradius 71.3297
rwrist -4.46817
rhand -28.2438 37.2105
rfingers 7.12502
rthumb -1.62135 7.2369
lclavicle -7.45443e-015 1.03368e-014
lhumerus -58.1647 -12.3262 89.564
lradius 123.399
lwrist 8.62245
lhand -5.16791 -15.0181
lfingers 7.12502
lthumb 20.6321 13.9053
rfemur -23.2789 -0.80058 31.404
rtibia 24.976
rfoot -2.21174 -10.5638
rtoes -2.71975
lfemur 10.3954 6.22788 -15.7754
ltibia 62.455
lfoot 1.69162 -4.03937
ltoes -11.7051
2737
root 4.38347 17.4619 -13.5 -716.847 18.9405 -350.258
lowerback 9.18623 -4.07513 -1.64143
upperback 0.563227 -5.64154 -1.19816
thorax -4.51236 -2.7653 0.398833
lowerneck -8.99241 -2.52737 -8.33616
upperneck 2.98144 -2.68434 4.85972
head 2.79545 -1.28326 2.97304
rclavicle -6.98728e-014 -2.94201e-014
rhumerus -77.8603 9.39177 -92.1974
rradius 71.0356
rwrist -4.70359
rhand -28.5782 36.9128
rfingers 7.12502
rthumb -1.9443 6.94195
lclavicle -6.98728e-014 -2.94201e-014
lhumerus -58.8715 -12.2478 90.1754
lradius 122.856
lwrist 8.32147
lhand -4.95902 -15.0104
lfingers 7.12502
lthumb 20.8328 13.8912
rfemur -23.0742 -1.16474 31.7746
rtibia 26.3197
rfoot -2.23925 -9.84275
rtoes 1.05916
lfemur 9.7579 6.53917 -15.1284
ltibia 65.5538
lfoot 1.53041 -4.80669
ltoes -12.6429
2738
root 4.51258 17.3473 -13.212 -717.28 18.4906 -350.235
lowerback 9.34914 -4.03714 -1.67951
upperback 0.783026 -5.58746 -1.10274
thorax -4.3611 -2.73921 0.513607
lowerneck -9.10316 -2.48797 -8.15486
upperneck 2.75561 -2.62315 4.57003
head 2.72201 -1.25566 2.83922
rclavicle -4.96962e-015 -5.56597e-015
rhumerus -76.9017 8.43728 -91.4665
rradius 70.631
rwrist -4.92385
rhand -28.7916 36.6194
rfingers 7.12502
rthumb -2.15044 6.65044
lclavicle -4.96962e-015 -5.56597e-015
lhumerus -59.3862 -11.9915 90.8201
lradius 122.122
lwrist 8.05609
lhand -4.91721 -15.1273
lfingers 7.12502
lthumb 20.873 13.7698
rfemur -22.8383 -1.70043 32.3141
rtibia 27.9665
rfoot -2.45866 -8.32552
rtoes 5.56251
lfemur 8.86974 6.78281 -14.3766
ltibia 68.9505
lfoot 1.33582 -5.3944
ltoes -13.4867
2739
root 4.64076 17.2161 -12.9345 -717.755 18.0401 -350.398
lowerback 9.56042 -3.99581 -1.50852
upperback 0.999634 -5.50674 -0.969429
thorax -4.25671 -2.70276 0.552789
lowerneck -9.22902 -2.458 -7.99301
upperneck 2.53784 -2.57305 4.29236
head 2.65635 -1.23347 2.71352
rclavicle -4.23411e-014 8.74653e-015
rhumerus -76.1177 7.51601 -90.8329
rradius 70.4617
rwrist -5.12495
rhand -28.987 36.2974
rfingers 7.12502
rthumb -2.33911 6.33049
lclavicle -4.23411e-014 8.74653e-015
lhumerus -59.7585 -11.5258 91.4989
lradius 121.192
lwrist 7.78333
lhand -4.99116 -15.4037
lfingers 7.12502
lthumb 20.8019 13.5012
rfemur -22.5896 -2.30626 33.0472
rtibia 29.8578
rfoot -3.34674 -6.61331
rtoes 10.076
lfemur 7.81922 7.00357 -13.3856
ltibia 72.5558
lfoot 1.01428 -5.82411
ltoes -14.3825
2740
root 4.76889 17.074 -12.6666 -718.243 17.6013 -350.693
lowerback 9.76099 -3.96115 -1.20342
upperback 1.2338 -5.41829 -0.803424
thorax -4.13722 -2.66437 0.548788
lowerneck -9.42013 -2.44435 -7.86203
upperneck 2.34722 -2.53989 4.06225
head 2.61578 -1.21838 2.60999
rclavicle -4.6615e-014 4.77083e-015
rhumerus -75.2059 6.58279 -90.2491
rradius 70.234
rwrist -5.20524
rhand -29.0822 35.929
rfingers 7.12502
rthumb -2.43106 5.96313
lclavicle -4.6615e-014 4.77083e-015
lhumerus -60.0522 -10.8046 92.098
lradius 120.139
lwrist 7.6538
lhand -5.02102 -15.8999
lfingers 7.12502
lthumb 20.7732 13.0082
rfemur -22.4259 -2.76432 33.8341
rtibia 31.9478
rfoot -4.86145 -5.31657
rtoes 13.0619
lfemur 6.62222 7.17472 -12.2508
ltibia 76.264
lfoot 0.414444 -6.1916
ltoes -16.049
2741
root 4.89444 16.9317 -12.4037 -718.749 17.1547 -351.13
lowerback 9.99908 -3.93508 -0.734757
upperback 1.44647 -5.32276 -0.607488
thorax -4.07258 -2.62329 0.487912
lowerneck -9.6132 -2.43171 -7.69967
upperneck 2.18608 -2.51044 3.78304
head 2.58399 -1.20693 2.48426
rclavicle 3.94588e-014 1.59028e-015
rhumerus -73.9594 5.65116 -89.7242
rradius 69.7051
rwrist -5.04261
rhand -29.1684 35.4207
rfingers 7.12502
rthumb -2.51436 5.45582
lclavicle 3.94588e-014 1.59028e-015
lhumerus -60.0816 -9.82441 92.661
lradius 118.927
lwrist 7.72706
lhand -4.94234 -16.3615
lfingers 7.12502
lthumb 20.8488 12.5383
rfemur -22.2379 -3.05914 34.6775
rtibia 34.0923
rfoot -6.84244 -4.16155
rtoes 14.7002
lfemur 5.32906 7.37441 -10.8844
ltibia 79.9629
lfoot -0.0419307 -6.4487
ltoes -16.4601
